<svg width="74" height="74" viewBox="0 0 74 74" fill="none" xmlns="http://www.w3.org/2000/svg">
<rect x="19.5827" y="20.6069" width="21.7921" height="32.2648" rx="1.19908" stroke="#1C1385" stroke-width="1.48063"/>
<path d="M24.0788 22.2261C22.5152 22.2261 21.2505 23.4908 21.2505 25.0544C21.2505 27.1756 24.0788 30.3069 24.0788 30.3069C24.0788 30.3069 26.9071 27.1756 26.9071 25.0544C26.9071 23.4908 25.6425 22.2261 24.0788 22.2261ZM22.0586 25.0544C22.0586 23.9393 22.9637 23.0342 24.0788 23.0342C25.194 23.0342 26.099 23.9393 26.099 25.0544C26.099 26.2181 24.9354 27.9595 24.0788 29.0463C23.2384 27.9675 22.0586 26.2059 22.0586 25.0544Z" fill="#1C1385"/>
<path d="M24.0788 26.0645C24.6367 26.0645 25.0889 25.6123 25.0889 25.0544C25.0889 24.4966 24.6367 24.0443 24.0788 24.0443C23.521 24.0443 23.0687 24.4966 23.0687 25.0544C23.0687 25.6123 23.521 26.0645 24.0788 26.0645Z" fill="#1C1385"/>
<g filter="url(#filter0_d_560_586)">
<path d="M47.8807 49.3424L47.8616 49.6295L48.0413 49.8542L48.0742 49.8953L49.0012 51.0539L47.6448 49.6975C47.8599 48.6917 47.5622 47.6092 46.7742 46.8285C45.8006 45.8466 44.3537 45.6626 43.1954 46.194L42.228 46.6378L42.9806 47.3904L44.0545 48.4643L43.982 48.5372L42.8708 47.4484L42.1422 46.7344L41.6893 47.6485C41.0943 48.8494 41.3836 50.2932 42.3057 51.2468L42.3057 51.2468L42.3092 51.2504C42.7369 51.6867 43.2827 51.9884 43.8796 52.1185C44.313 52.213 44.7595 52.214 45.1899 52.1237L48.2555 55.1818C48.6928 55.6334 49.3915 55.6338 49.8293 55.183L50.6609 54.3594C51.1009 53.9658 51.2134 53.1954 50.6897 52.7424L49.3926 51.4453V49.4328V49.0216V44.9096V44.7849L49.3518 44.6671L47.6416 39.7338C47.6415 39.7336 47.6415 39.7335 47.6414 39.7333C47.3749 38.9612 46.6357 38.4124 45.7739 38.4124H36.7274C35.8657 38.4124 35.1265 38.9611 34.86 39.7331C34.8599 39.7333 34.8598 39.7336 34.8597 39.7338L33.1495 44.6671L33.1087 44.7849V44.9096V51.4888C33.1087 52.35 33.8102 53.0515 34.6714 53.0515H35.4938C36.355 53.0515 37.0565 52.35 37.0565 51.4888V51.4067H40.7737H41.9109L41.4506 50.3668C41.2698 49.9583 41.1686 49.5011 41.1686 49.0216C41.1686 47.1606 42.6793 45.6499 44.5403 45.6499C46.4012 45.6499 47.912 47.1606 47.912 49.0216C47.912 49.0376 47.9103 49.0634 47.9036 49.1208C47.9027 49.1284 47.9017 49.1373 47.9005 49.1472C47.8945 49.1963 47.8855 49.2711 47.8807 49.3424ZM36.7274 46.4723C37.0012 46.4723 37.2207 46.6918 37.2207 46.9656C37.2207 47.2393 37.0012 47.4589 36.7274 47.4589C36.4537 47.4589 36.2341 47.2393 36.2341 46.9656C36.2341 46.6918 36.4537 46.4723 36.7274 46.4723ZM37.261 41.1266H45.2403L45.9804 43.3468H36.5209L37.261 41.1266Z" stroke="#1C1385" stroke-width="1.48063" shape-rendering="crispEdges"/>
</g>
<path d="M23.4845 31.256V40.2542H30.325V49.5171H33.8489" stroke="#1C1385" stroke-width="0.987087"/>
<circle cx="37" cy="37" r="36" fill="#1C1385" fill-opacity="0.1"/>
<circle cx="37" cy="37" r="36.4337" stroke="#1C1385" stroke-opacity="0.2" stroke-width="0.86747"/>
<defs>
<filter id="filter0_d_560_586" x="31.5177" y="37.6721" width="21.1128" height="20.2903" filterUnits="userSpaceOnUse" color-interpolation-filters="sRGB">
<feFlood flood-opacity="0" result="BackgroundImageFix"/>
<feColorMatrix in="SourceAlpha" type="matrix" values="0 0 0 0 0 0 0 0 0 0 0 0 0 0 0 0 0 0 127 0" result="hardAlpha"/>
<feOffset dy="0.85065"/>
<feGaussianBlur stdDeviation="0.425325"/>
<feComposite in2="hardAlpha" operator="out"/>
<feColorMatrix type="matrix" values="0 0 0 0 0 0 0 0 0 0 0 0 0 0 0 0 0 0 0.25 0"/>
<feBlend mode="normal" in2="BackgroundImageFix" result="effect1_dropShadow_560_586"/>
<feBlend mode="normal" in="SourceGraphic" in2="effect1_dropShadow_560_586" result="shape"/>
</filter>
</defs>
</svg>
