<svg width="74" height="74" viewBox="0 0 74 74" fill="none" xmlns="http://www.w3.org/2000/svg">
<path d="M51.3185 43.6818L51.2993 43.9699L51.4797 44.1954L51.5447 44.2767L52.8682 45.9308V43.8124V42.9999V34.8749V34.7498L52.8272 34.6315L49.4476 24.8827C49.4475 24.8825 49.4474 24.8822 49.4473 24.882C49.0199 23.6434 47.8302 22.7568 46.4375 22.7568H28.5625C27.1698 22.7568 25.9801 23.6434 25.5527 24.8821C25.5526 24.8823 25.5526 24.8825 25.5525 24.8827L22.1729 34.6315L22.1319 34.7498V34.8749V47.8749C22.1319 49.1791 23.1959 50.2431 24.5 50.2431H26.125C27.4292 50.2431 28.4932 49.1791 28.4932 47.8749V46.9931H36.5575H37.6991L37.2371 45.9492C36.8398 45.0515 36.6182 44.0489 36.6182 42.9999C36.6182 38.9254 39.9255 35.6181 44 35.6181C48.0746 35.6181 51.3819 38.9254 51.3819 42.9999C51.3819 43.076 51.3742 43.1618 51.3605 43.2794C51.3582 43.2987 51.3557 43.3195 51.3531 43.3415C51.3413 43.4398 51.3265 43.5624 51.3185 43.6818ZM41.6427 38.067L40.6716 38.5124L41.427 39.2679L44.056 41.8969L42.904 43.0574L40.1976 40.4054L39.4662 39.6887L39.0116 40.6063C37.9827 42.6832 38.4729 45.2118 40.1021 46.8965L40.1021 46.8965L40.1056 46.9002C40.8524 47.662 41.8056 48.1889 42.8479 48.4161C43.7294 48.6082 44.6422 48.5789 45.5054 48.3342L51.8539 54.6673C52.4368 55.2734 53.3555 55.2738 53.9388 54.6684L55.6012 53.022C56.2195 52.4853 56.3386 51.4524 55.6628 50.8818L49.3373 44.5562C49.8744 42.7044 49.3857 40.6408 47.9054 39.1756C46.2085 37.4625 43.6768 37.1339 41.6427 38.067ZM28.5625 37.2431C29.5009 37.2431 30.2569 37.9991 30.2569 38.9374C30.2569 39.8758 29.5009 40.6318 28.5625 40.6318C27.6242 40.6318 26.8682 39.8758 26.8682 38.9374C26.8682 37.9991 27.6242 37.2431 28.5625 37.2431ZM29.0982 26.6806H45.9019L47.844 32.5068H27.1561L29.0982 26.6806Z" stroke="#1C1385" stroke-width="1.48628"/>
<circle cx="37" cy="37" r="36" fill="#1C1385" fill-opacity="0.1"/>
<circle cx="37" cy="37" r="36.4337" stroke="#1C1385" stroke-opacity="0.2" stroke-width="0.86747"/>
</svg>
