<svg width="45" height="45" viewBox="0 0 45 45" fill="none" xmlns="http://www.w3.org/2000/svg">
<circle cx="22.5" cy="22.5" r="22.0109" stroke="#C9C7E2" stroke-width="0.978262"/>
<path d="M14.9507 28.778H30.7534C31.2966 28.778 31.741 28.3336 31.741 27.7904C31.741 27.2472 31.2966 26.8027 30.7534 26.8027H14.9507C14.4074 26.8027 13.963 27.2472 13.963 27.7904C13.963 28.3336 14.4074 28.778 14.9507 28.778ZM14.9507 23.8397H30.7534C31.2966 23.8397 31.741 23.3952 31.741 22.852C31.741 22.3088 31.2966 21.8644 30.7534 21.8644H14.9507C14.4074 21.8644 13.963 22.3088 13.963 22.852C13.963 23.3952 14.4074 23.8397 14.9507 23.8397ZM13.963 17.9137C13.963 18.4569 14.4074 18.9014 14.9507 18.9014H30.7534C31.2966 18.9014 31.741 18.4569 31.741 17.9137C31.741 17.3705 31.2966 16.926 30.7534 16.926H14.9507C14.4074 16.926 13.963 17.3705 13.963 17.9137Z" fill="black" fill-opacity="0.9"/>
</svg>
