<svg width="74" height="74" viewBox="0 0 74 74" fill="none" xmlns="http://www.w3.org/2000/svg">
<circle cx="37" cy="37" r="36" fill="#1C1385" fill-opacity="0.1"/>
<circle cx="37" cy="37" r="36.4337" stroke="#1C1385" stroke-opacity="0.2" stroke-width="0.86747"/>
<path d="M22.1159 22.1376L21.6009 21.6849L21.116 22.1697L19.4374 23.8483L18.9345 24.3513L19.4233 24.868L30.4473 36.5185V41.1853V41.9166H31.1785H37.7779H38.5091V41.1853V36.8788V36.548L38.2607 36.3296L22.1159 22.1376ZM20.0149 25.58L18.7528 24.2478V26.0829V32.8769V33.2661L19.0757 33.4834L19.4149 33.7119L19.4149 33.7119L19.4193 33.7148C20.1935 34.228 20.4024 34.679 20.455 34.9282C20.5055 35.1791 20.4451 35.3795 20.2839 35.5728L20.2839 35.5728L20.2818 35.5753C20.0943 35.8022 19.8465 35.9406 19.5957 35.9592C19.3642 35.9764 19.0171 35.8998 18.5949 35.475L18.0762 34.9531L17.5575 35.475L16.4813 36.558L15.9664 37.0761L16.484 37.5915C18.4187 39.5182 21.1959 39.1402 22.5754 37.492L22.5765 37.4906C23.2635 36.6658 23.623 35.5119 23.3781 34.3283C23.1809 33.3675 22.5964 32.491 21.7382 31.7581V27.6904V27.3991L21.5378 27.1875L20.0149 25.58ZM41.3145 29.7936H40.5832V30.5248V41.977H25.6621L25.4803 43.4165C27.1386 43.8421 28.4606 45.143 28.9075 46.7915L29.0539 47.3314H29.6133H43.3704H43.9295L44.0761 46.7919C44.6267 44.7657 46.4853 43.2703 48.6753 43.2703C50.8653 43.2703 52.7239 44.7657 53.2745 46.7919L53.4211 47.3314H53.9802H56.0361H56.7674V46.6002V39.4424V39.2483L56.6711 39.0797L51.5777 30.1621L51.3672 29.7936H50.9428H41.3145ZM17.1599 41.977H16.2234L16.4505 42.8856L17.4235 46.7775L17.562 47.3314H18.1329H19.0001H19.559L19.7057 46.7921C20.1543 45.1428 21.4742 43.8422 23.1361 43.4166L22.9547 41.977H17.1599ZM45.0916 32.4405H49.1985L52.957 38.7619H45.0916V32.4708V32.4405ZM24.3084 43.3307C21.6986 43.3307 19.5989 45.4258 19.5989 48.0385C19.5989 50.6512 21.6986 52.7463 24.3084 52.7463C26.9205 52.7463 29.0162 50.6506 29.0162 48.0385C29.0162 45.4264 26.9205 43.3307 24.3084 43.3307ZM48.6753 43.3307C46.0632 43.3307 43.9675 45.4264 43.9675 48.0385C43.9675 50.6506 46.0632 52.7463 48.6753 52.7463C51.2874 52.7463 53.3831 50.6506 53.3831 48.0385C53.3831 45.4264 51.2874 43.3307 48.6753 43.3307Z" fill="#1C1385" fill-opacity="0.1" stroke="#1C1385" stroke-width="1.46247"/>
</svg>
